<svg width="35" height="26" viewBox="0 0 35 26" fill="none" xmlns="http://www.w3.org/2000/svg">
<path d="M17.3957 1.45105C20.1727 1.53757 22.867 3.13562 25.0324 6.98523C26.2013 9.06322 26.0025 11.0816 25.425 12.6219C25.1372 13.3894 24.7537 14.0439 24.3938 14.5399C24.043 15.0232 23.6874 15.3933 23.4367 15.5604H23.4358C23.435 15.5609 23.4341 15.5623 23.4328 15.5634C23.4301 15.5654 23.4259 15.5682 23.4211 15.5721C23.4114 15.5803 23.3985 15.5913 23.383 15.6063C23.3514 15.637 23.3128 15.679 23.2668 15.7323C23.1747 15.839 23.0649 15.9804 22.9406 16.1522C22.6921 16.496 22.4001 16.9405 22.0979 17.4237C21.4942 18.3888 20.8613 19.4882 20.4631 20.205L20.0422 19.9706L19.6223 19.7372C20.0259 19.0106 20.6674 17.8962 21.2824 16.913C21.5896 16.4219 21.8937 15.9576 22.1604 15.5887C22.2935 15.4046 22.4213 15.2389 22.5383 15.1034C22.6482 14.976 22.7736 14.8457 22.9025 14.7596C23.0128 14.6861 23.2887 14.4233 23.6145 13.9745C23.931 13.5383 24.2702 12.9598 24.5236 12.2841C25.0284 10.9377 25.1896 9.22762 24.1936 7.45691C22.1259 3.78106 19.6687 2.45472 17.2756 2.41199C14.8824 2.45458 12.4254 3.78097 10.3576 7.45691C9.36159 9.22764 9.52274 10.9377 10.0275 12.2841C10.281 12.9598 10.6202 13.5384 10.9367 13.9745C11.2625 14.4233 11.5384 14.6862 11.6486 14.7596C11.7775 14.8457 11.903 14.9761 12.0129 15.1034C12.1299 15.2389 12.2578 15.4047 12.3908 15.5887C12.6574 15.9576 12.9617 16.422 13.2688 16.913C13.8838 17.8962 14.5253 19.0107 14.9289 19.7372L14.509 19.9706L14.0881 20.205C13.6899 19.4882 13.057 18.3888 12.4533 17.4237C12.1511 16.9406 11.8591 16.496 11.6106 16.1522C11.4864 15.9805 11.3765 15.839 11.2844 15.7323C11.2385 15.6791 11.1998 15.637 11.1682 15.6063C11.1528 15.5914 11.1398 15.5803 11.1301 15.5721C11.1254 15.5682 11.1211 15.5654 11.1184 15.5634C11.1171 15.5624 11.1161 15.561 11.1154 15.5604H11.1145C10.8638 15.3933 10.5082 15.0231 10.1574 14.5399C9.79747 14.0439 9.41399 13.3894 9.12618 12.6219C8.54864 11.0816 8.34988 9.06323 9.51876 6.98523C11.6842 3.13555 14.3784 1.53744 17.1555 1.45105V1.44714C17.1952 1.44714 17.2349 1.44849 17.2746 1.4491C17.3149 1.44847 17.3554 1.44714 17.3957 1.44714V1.45105Z" fill="white"/>
<path d="M21.2458 19.9738H13.3071V23.3417H14.2694V24.7851H20.2835V23.3417H21.2458V19.9738Z" stroke="white" stroke-width="2.12898"/>
<path d="M17.3965 13.7166V19.9712" stroke="white" stroke-width="2.12898"/>
<path d="M14.5109 19.9701C13.709 18.5267 11.9609 15.5437 11.3836 15.1588C10.6619 14.6777 7.77509 11.0692 9.94018 7.22016C12.1053 3.37112 14.7515 1.92773 17.3977 1.92773C19.0014 2.00792 22.6901 3.17867 24.6146 7.22016C26.5391 11.2617 24.4542 14.1965 23.1712 15.1588C22.209 16.4418 20.1882 19.2003 19.8033 19.9701" stroke="white" stroke-width="2.12898"/>
</svg>
